<svg xmlns="http://www.w3.org/2000/svg" viewBox="0 0 820.57 522.26"><g id="Copo_green"><line x1="293.48" y1="120.54" x2="411.37" y2="120.54" fill="none" stroke="#00bb29" stroke-miterlimit="10"/><line x1="328.01" y1="203.9" x2="411.37" y2="120.54" fill="none" stroke="#00bb29" stroke-miterlimit="10"/><line x1="328.01" y1="37.18" x2="411.37" y2="120.54" fill="none" stroke="#00bb29" stroke-miterlimit="10"/><path d="M361.61,13.63v45.5a14.15,14.15,0,0,0,4.14,10l41.3,41.31h0V45.85L371,9.76" fill="none" stroke="#00bb29" stroke-miterlimit="10"/><path d="M304.47,170.3H350a14.15,14.15,0,0,0,10-4.14l41.3-41.29H342.55a14.15,14.15,0,0,0-10,4.14l-32,32" fill="none" stroke="#00bb29" stroke-miterlimit="10"/><circle cx="371.04" cy="9.76" r="3.77" fill="#00bb29"/><circle cx="361.61" cy="13.69" r="3.77" fill="#00bb29"/><path d="M361.61,227.45V182a14.15,14.15,0,0,1,4.14-10l41.3-41.3h0v64.58L371,231.33" fill="none" stroke="#00bb29" stroke-miterlimit="10"/><circle cx="371.04" cy="231.33" r="3.77" fill="#00bb29"/><circle cx="361.61" cy="227.4" r="3.77" fill="#00bb29"/><circle cx="328.07" cy="37.23" r="3.77" fill="#00bb29"/><circle cx="293.48" cy="120.54" r="3.77" fill="#00bb29"/><circle cx="300.59" cy="160.78" r="3.77" fill="#00bb29"/><circle cx="304.72" cy="170.3" r="3.77" fill="#00bb29"/><path d="M300.42,80.22l32.16,32.17a14.19,14.19,0,0,0,10,4.14H401L359.48,75a14.15,14.15,0,0,0-10-4.14H304.29" fill="none" stroke="#00bb29" stroke-miterlimit="10"/><circle cx="304.4" cy="70.75" r="3.77" fill="#00bb29"/><circle cx="300.59" cy="80.4" r="3.77" fill="#00bb29"/><circle cx="328.17" cy="203.74" r="3.77" fill="#00bb29"/><circle cx="361.61" cy="227.33" r="3.77" fill="#00bb29"/><circle cx="371.05" cy="231.32" r="3.77" fill="#00bb29"/></g><g id="Copo_blue"><path d="M530.78,124.94H497.47l28.77,28.77c-.79,2.76-1.68,5.47-2.65,8.15l-36.91-36.92h-66l46.47,46.46h52.5c-1.2,2.6-2.51,5.14-3.89,7.63h-41l23.72,23.71c-.95,1-1.92,2-2.91,3s-2,2-3,2.91L468.83,185v41q-3.74,2.09-7.63,3.9v-52.5l-46.46-46.46v66l36.9,36.9q-4,1.47-8.14,2.65l-28.76-28.76V241c-1.47,0-2.95.08-4.42.08s-2.94,0-4.41-.08V.08c1.47,0,2.93-.08,4.41-.08s2.95,0,4.42.08v33.3L443.49,4.63q4.14,1.17,8.15,2.64l-36.9,36.9v66L461.2,63.74V11.23q3.9,1.81,7.63,3.9v41l23.7-23.7c1,1,2,1.92,3,2.91s2,2,2.92,3L474.75,62h41c1.38,2.49,2.69,5,3.88,7.63H467.13l-46.47,46.47h66l36.9-36.9c1,2.67,1.87,5.39,2.65,8.14l-28.76,28.76h33.3q.09,2.19.09,4.41C530.86,122,530.83,123.48,530.78,124.94Z" fill="#3d4aa1"/></g><g id="line"><rect y="444.31" width="820.57" height="15" fill="#00bb29"/></g><g id="DeRigo"><rect x="483.41" y="311.52" width="16.63" height="110.99" fill="#3d4aa1"/><path d="M461.24,350.4v-4.28a34.53,34.53,0,0,0-34.53-34.53H331.35V422.43H348V384.91h64.16l28.27,37.52h20.82l-28.65-38A34.52,34.52,0,0,0,461.24,350.4Zm-22.48,12a20,20,0,0,1-14.13,5.85H348v-40h76.65a20,20,0,0,1,14.13,34.11Z" fill="#3d4aa1"/><path d="M660.3,358.7v8.35a44.49,44.49,0,0,1-.77,8.27c-5,26.7-33.65,47.18-68.28,47.18-38.14,0-69-24.82-69-55.45s30.91-55.46,69-55.46c25.91,0,48.49,11.46,60.29,28.42l-17,9.85c-7.9-12.77-24.3-21.54-43.24-21.54-26.65,0-48.24,17.34-48.24,38.73s21.59,38.74,48.24,38.74c23.1,0,42.42-13,47.14-30.47H591.25V358.7Z" fill="#3d4aa1"/><path d="M751.52,312.83c-38.14,0-69,24.83-69,55.45s30.91,55.47,69,55.47,69.05-24.84,69.05-55.47S789.65,312.83,751.52,312.83Zm0,94.19c-26.64,0-48.24-17.35-48.24-38.74s21.6-38.73,48.24-38.73,48.23,17.34,48.23,38.73S778.16,407,751.52,407Z" fill="#3d4aa1"/><path d="M75,311.59H0V422.43H75a55.42,55.42,0,0,0,0-110.84Zm27.45,82.86a38.63,38.63,0,0,1-27.4,11.35H16.63V328.32H75.06a38.74,38.74,0,0,1,27.4,66.13Z" fill="#3d4aa1"/><polygon points="169.22 328.32 169.22 358.75 235.72 358.75 235.72 375.38 169.22 375.38 169.22 405.8 263.43 405.8 263.43 422.43 152.6 422.43 152.6 311.69 263.43 311.69 263.43 328.32 169.22 328.32" fill="#3d4aa1"/></g><g id="Subtitle"><path d="M117.42,491.16H104.7v30.43h-3.17V491.16H88.81V488h28.61Z" fill="#3d4aa1"/><path d="M153.9,521.59H128.45V488h25v3.17H131.67v11.57h20.4v3.21h-20.4v12.44H153.9Z" fill="#3d4aa1"/><path d="M194,509.21h3.37c-1.83,8.69-8.41,13.05-16.85,13.05-9.6,0-17.53-6-17.53-17.47s7.93-17.52,17.53-17.52c8.44,0,15,4.42,16.85,13.11H194c-1.58-6.1-5.76-10-13.48-10-9.22,0-14.26,5.95-14.26,14.4s5,14.4,14.26,14.4C188.26,519.19,192.44,515.3,194,509.21Z" fill="#3d4aa1"/><path d="M238.9,488v33.6h-4.32l-23-29.86v29.86h-3.17V488h4.32l23,29.86V488Z" fill="#3d4aa1"/><path d="M286.28,504.79c0,11.57-8.54,17.47-18.14,17.47s-18.2-5.9-18.2-17.47,8.55-17.52,18.2-17.52S286.28,493.22,286.28,504.79Zm-3.26,0c0-8.54-5.67-14.4-14.88-14.4s-14.89,5.86-14.89,14.4,5.62,14.4,14.89,14.4S283,513.34,283,504.79Z" fill="#3d4aa1"/><path d="M322.28,521.59h-25V488h3.17v30.39h21.79Z" fill="#3d4aa1"/><path d="M366.3,504.79c0,11.57-8.55,17.47-18.15,17.47S330,516.36,330,504.79s8.54-17.52,18.19-17.52S366.3,493.22,366.3,504.79Zm-3.27,0c0-8.54-5.66-14.4-14.88-14.4s-14.88,5.86-14.88,14.4,5.62,14.4,14.88,14.4S363,513.34,363,504.79Z" fill="#3d4aa1"/><path d="M393.13,522.26c-9.65,0-18.2-6-18.2-17.47s8.6-17.52,18.2-17.52c7.72,0,14.11,3.7,16.51,11h-3.5c-2-4.85-6.24-7.87-13-7.87-9.27,0-14.93,5.95-14.93,14.4s5.66,14.4,14.93,14.4c9.69,0,14-5.33,14.06-12.14H394.57v-3.17h15.69C411.27,516.26,403.78,522.26,393.13,522.26Z" fill="#3d4aa1"/><path d="M424.61,488v33.6H421.4V488Zm4.8-9.36-5.52,6.19h-1.53l3.6-6.19Z" fill="#3d4aa1"/><path d="M462.53,513H441.89l-4.08,8.64h-3.6L450.15,488h4.13l15.93,33.6h-3.59Zm-1.48-3.17-8.84-18.72-8.83,18.72Z" fill="#3d4aa1"/><path d="M524.45,521.59H499V488h25v3.17H502.23v11.57h20.4v3.21h-20.4v12.44h22.22Z" fill="#3d4aa1"/><path d="M566.45,488v33.6h-4.32l-23-29.86v29.86H536V488h4.32l23,29.86V488Z" fill="#3d4aa1"/><path d="M602.31,491.16v12.48h20.4v3.22h-20.4v14.73h-3.22V488h25v3.17Z" fill="#3d4aa1"/><path d="M665.81,521.59H662l-8.11-12.72a15.34,15.34,0,0,1-1.54.05H638.3v12.67h-3.16V488h17.71c9.65,0,12.29,4.85,12.29,10.47,0,4.22-1.83,8.44-7.78,9.93Zm-3.94-23.13c0-4.47-2.3-7.3-9-7.3H638.3v14.59h14.55C659.62,505.75,661.87,502.92,661.87,498.46Z" fill="#3d4aa1"/><path d="M679.58,488v33.6h-3.21V488Zm4.8-9.36-5.52,6.19h-1.53l3.6-6.19Z" fill="#3d4aa1"/><path d="M727,504.79c0,11.57-8.54,17.47-18.14,17.47s-18.2-5.9-18.2-17.47,8.55-17.52,18.2-17.52S727,493.22,727,504.79Zm-3.26,0c0-8.54-5.67-14.4-14.88-14.4s-14.89,5.86-14.89,14.4,5.62,14.4,14.89,14.4S723.7,513.34,723.7,504.79Z" fill="#3d4aa1"/></g></svg>