<?xml version="1.0" encoding="utf-8"?>
<svg version="1.1" id="Laag_1" xmlns="http://www.w3.org/2000/svg" xmlns:xlink="http://www.w3.org/1999/xlink" x="0px" y="0px"
	 viewBox="0 0 400 81.5" enable-background="new 0 0 400 81.5" xml:space="preserve">
<polygon fill="#004494" points="124.7,0 102,40.9 95.8,29.1 101.8,17.8 92.8,0 86.5,11.3 86.5,11.3 76.8,28.8 76.8,28.8 70.1,40.9 
	48.7,0 29.7,0 59.8,57 80.9,57 86.3,46.8 91.7,57 112.8,57 143.2,0 "/>
<g>
	<g>
		<path fill="#004494" d="M142.1,13.9v8.6h42.3v12h-42.3v8.7h45.6V57h-63V0H187v13.9H142.1z"/>
		<path fill="#004494" d="M189.8,57V0h51.4c12.8,0,19,5.2,19,15.9c0,6.1-2.7,9.9-8.4,12.1c7.2,1.2,10.4,5.4,10.4,13.6
			c0,11-5.6,15.4-18.3,15.4H189.8z M242.1,17.5c0-2.8-1.8-4.7-4.5-4.7h-30.6v9.4h30.6C240.5,22.2,242.1,20.5,242.1,17.5z M244,38.8
			c0-3.1-1.9-5-4.8-5h-32.1v10.3h32.1C242.3,44.1,244,42.2,244,38.8z"/>
		<path fill="#004494" d="M281.8,13.9v8.6H324v12h-42.3v8.7h45.6V57h-63V0h62.3v13.9H281.8z"/>
		<path fill="#004494" d="M399,18.7c0,9.4-2.4,14.1-9.5,15.8c6,1.4,9,5,9,10.8V57h-17.4v-8.7c0-4.9-2.1-5.9-7.8-5.9h-26V57h-17.5V0
			h45.8C392.9,0,399,3.8,399,18.7z M347.2,14.2v14h27.7c4.9,0,6.3-2.1,6.3-7.5c0-4.4-1.8-6.4-6.3-6.4H347.2z"/>
	</g>
</g>
<g>
	<path fill="#004494" d="M34.9,81.5c-0.9,0-2.1-0.9-2.2-1.8c-0.1-1-0.1-2-0.1-2.9c0-0.8,0-1.6-0.1-2.4c-0.5,0.3-1.3,0.8-1.7,1.1
		c-0.3,0.2-0.5,0.3-0.6,0.4l-0.5,0.3c-0.9,0.5-1.8,1.1-2.9,1.3c-0.1,0-0.3,0-0.4,0c-0.8,0-1.4-0.4-1.8-1.2c-0.2-0.5-0.3-1-0.2-1.6
		c0.1-0.9,0.8-1.3,1.4-1.6l0.7-0.4c0.7-0.4,1.3-0.8,2-1.2c0.8-0.5,1.6-0.9,2.4-1.4c0.1-0.1,0.2-0.1,0.4-0.2c0.3-0.1,1.2-0.6,1.4-0.8
		c0-0.8,0-1.6,0-2.4c0-1.4,0-2.8,0-4.2c-0.9,0.5-1.7,1-2.6,1.5c-1.4,0.8-2.9,1.7-4.5,2.4c-0.3,0.1-0.5,0.2-0.8,0.2
		c-0.6,0-1.2-0.3-1.6-0.8c-0.4-0.5-0.6-1.2-0.5-1.8c0-0.1,0-0.3,0.1-0.4c-0.2,0.2-0.3,0.3-0.6,0.5c-0.4,0.2-0.7,0.3-1.1,0.3
		c-0.4,0-0.8-0.1-1.2-0.4c-1.2-0.8-1.1-2.3-1-3.4c0-0.3,0-0.6,0-0.9c0-0.6,0-1.3,0-1.9c0-1.1,0-2.3-0.1-3.4
		c-1.2,0.6-2.4,1.3-3.6,2.1c-0.7,0.4-1.4,0.8-2,1.2c-0.1,0.2-0.1,1.3,0,1.6c0,0.2,0,0.4,0,0.5c0,1-0.1,5-0.1,5.7
		c0,1.2-0.1,1.6-1.2,2.3c-0.4,0.3-0.8,0.4-1.2,0.4c-0.6,0-1.2-0.3-1.6-0.7c-0.7-0.7-0.7-2.1-0.6-3.2c0-0.3,0-0.5,0-0.7
		c0-0.5,0-1,0-1.6c0-0.6,0-1.1,0-1.7c-0.5,0.3-1,0.6-1.5,0.8c-0.3,0.2-0.7,0.4-1,0.6c-0.1,0.1-0.3,0.2-0.4,0.3C4.7,62.5,3.8,63,3,63
		c-0.3,0-0.5-0.1-0.7-0.2c-0.8-0.4-1.3-1.1-1.5-1.9c-0.1-0.6,0.1-1.2,0.6-1.7c1.2-1.1,2.6-1.9,4-2.6c0.2-0.1,0.4-0.2,0.6-0.3
		c-0.7-0.4-1.3-0.8-2-1.2c-0.4-0.2-0.8-0.5-1.2-0.7c-0.1-0.1-0.2-0.1-0.4-0.2c-1.1-0.7-2.9-1.6-2.1-3.5c0.3-0.8,1.2-1.4,2-1.4
		c0.3,0,0.7,0.1,1,0.3c0.7,0.4,1.3,0.7,2,1.1c0.6,0.3,1.3,0.7,1.9,1l2,1.1c0.1,0.1,0.3,0.2,0.4,0.3c0.2,0.2,0.8,0.6,1,0.6
		c0.2,0,0.5-0.2,0.8-0.4c0.1-0.1,0.2-0.1,0.3-0.2c0.6-0.4,1.3-0.7,1.9-1.1c0.3-0.2,0.7-0.4,1.1-0.6c0.6-0.3,1.2-0.6,1.8-1
		c-1.5-1-3-1.9-4.6-2.8c-0.7-0.4-1.4-0.8-2.1-1.2c-1.1-0.6-1.3-2.1-0.7-3c0.4-0.6,0.9-0.9,1.4-1.1c-0.2-0.1-0.3-0.1-0.5-0.2
		c-0.6-0.4-1-1.1-1.1-1.9c-0.1-0.9,0.2-1.7,1-2.1c2.2-1.2,4.4-2.5,6.7-3.9c-0.5-0.3-1.1-0.6-1.6-0.9c-0.4-0.2-0.7-0.4-1.1-0.6
		c-0.3-0.1-0.5-0.3-0.8-0.5c-0.7-0.5-1.6-1.1-2.2-1.1l-0.1,0c-0.3,0-0.7,0.3-1,0.5c-0.2,0.1-0.3,0.2-0.5,0.3c-0.7,0.4-1.3,0.7-2,1.1
		c-1.1,0.6-2.3,1.2-3.5,1.9l-0.6,0.3c-0.3,0.1-0.5,0.2-0.8,0.2c-0.4,0-0.9-0.2-1.3-0.5c-0.8-0.7-0.9-1.5-0.9-1.9
		c0.1-0.8,0.6-1.5,1.6-2.1c0.6-0.4,1.3-0.8,1.9-1.1c0.8-0.5,1.6-0.9,2.4-1.4c-0.8-0.5-1.6-1-2.4-1.4c-0.1-0.1-0.3-0.2-0.4-0.2
		C2.2,26,1,25.3,0.8,24.1c-0.2-1.2,0.8-2.2,1.8-2.5c0.1,0,0.3,0,0.4,0c0.9,0,1.9,0.6,2.6,1.1C5.8,22.8,6,22.9,6.2,23l0.9,0.5
		c0.4,0.2,0.8,0.5,1.2,0.7c0-0.6,0-1.1,0-1.7c0-0.5,0-1.1,0-1.6c0-0.2,0-0.4,0-0.7c0-1-0.1-2.3,0.6-3c0.5-0.5,1.1-0.8,1.7-0.8
		c0.5,0,1.1,0.2,1.5,0.6c1.1,1,1,2.7,0.9,4.1c0,0.4,0,0.7,0,1.1l0,2.7c0,0.1,0,0.3,0,0.5c0,0.3-0.1,1.3,0,1.6c0.7,0.4,1.4,0.8,2,1.2
		c1.2,0.7,2.4,1.5,3.6,2c0-0.8,0-1.7,0-2.5l0-3.6c0-0.1,0-0.3,0-0.5c-0.1-1.1-0.1-1.9,0.3-2.3c0.1-0.1,0.1-0.1,0.2-0.2
		c0.2-0.2,0.5-0.5,0.8-0.7c0.3-0.2,0.7-0.3,1.1-0.3c0.7,0,1.3,0.3,1.7,0.8c-0.2-0.6-0.1-1.3,0.3-1.9c0.4-0.6,1.1-1,1.8-1
		c0.3,0,0.6,0.1,0.9,0.2c1.4,0.7,2.8,1.5,4.2,2.3c0.9,0.5,1.8,1,2.7,1.5c0-0.9,0-3.3,0-3.3c0-0.2,0-0.5,0.1-0.8
		c0.1-1.6,0.1-2.4-0.1-2.6c-0.6-0.4-1.2-0.7-1.9-1c-1.8-1-3.7-2-5.3-3.2c-0.8-0.6-1.1-1.6-0.8-2.5c0.3-0.7,0.8-1.2,1.5-1.4
		c0.2-0.1,0.4-0.1,0.6-0.1c0.9,0,1.9,0.6,2.6,1.1c0.2,0.1,0.4,0.3,0.6,0.4l2.7,1.5c0-0.5,0-1.1,0-1.6c0-0.5,0-1.1,0-1.6l0-0.4
		c0-1.1,0-2.4,1.3-3.1c0.5-0.3,0.9-0.3,1.3-0.3h0.1l0.1,0c1.7,0.8,1.7,1.7,1.8,3.2l0,0.1c0,0.6,0,1.2,0.1,1.8c0,0.6,0,1.2,0,1.8
		c0.5-0.3,1-0.6,1.4-0.8c0.9-0.5,1.8-1,2.7-1.5c0.7-0.4,1.4-0.5,2-0.5c1,0,1.7,0.6,2,1.7c0.2,1-0.1,1.8-0.9,2.3
		c-1.3,0.8-2.6,1.6-3.9,2.3c-1.1,0.6-2.2,1.3-3.3,1.9c0,1,0,5,0,6.6c0.7-0.4,1.3-0.8,2-1.2c1.7-1,3.4-2.1,5.2-2.7
		c0.2-0.1,0.5-0.1,0.7-0.1c0.4,0,0.8,0.1,1.2,0.4c0.8,0.6,1.1,1.7,0.8,2.6c0.1-0.1,0.1-0.2,0.2-0.3c0.4-0.4,0.8-0.5,1.4-0.5
		c0.3,0,0.5,0,0.8,0.1c0.8,0.2,1.3,0.8,1.5,1.6c0.2,1.1,0.2,2.2,0.2,3.3c0,0.4,0,0.9,0,1.3c0,1.2,0,2.4,0,3.6c0.6-0.3,1.2-0.7,1.8-1
		c0.3-0.2,0.7-0.4,1-0.6c0.2-0.1,0.5-0.3,0.8-0.4c0.7-0.3,1.9-0.9,2.1-1.4c0.1-0.3,0.1-0.8,0-1.3c0-0.3,0-0.5,0-0.7c0-0.7,0-1.3,0-2
		c0-0.4,0-0.7,0-1.1c0-1.2,0-2.5,0.2-3.6c0.3-1.1,1.1-1.8,2.1-1.8c0.2,0,0.5,0,0.7,0.1c0.9,0.2,1.4,0.9,1.5,1.7
		c0.1,1.3,0.2,2.7,0.2,4c0,0.7,0,1.3,0,2c0.5-0.3,0.9-0.5,1.4-0.8c0.4-0.2,0.8-0.5,1.2-0.7c0.1-0.1,0.2-0.1,0.3-0.2
		c0.7-0.4,1.6-0.9,2.4-0.9c0.3,0,0.5,0,0.8,0.1c0.9,0.4,1.5,1.6,1.3,2.6c-0.3,1.1-1.4,1.7-2.3,2.2c-0.2,0.1-0.3,0.2-0.5,0.3
		c-0.4,0.3-0.9,0.5-1.3,0.8c-0.4,0.2-0.7,0.4-1.1,0.6c1,0.6,2,1.3,3.1,1.9c0.6,0.4,1.3,0.8,1.9,1.2c0.6,0.4,0.9,1,0.9,1.9
		c0,0.5-0.1,0.9-0.4,1.2c-0.4,0.6-1,0.9-1.7,0.9c-0.2,0-0.4,0-0.6-0.1c-1.8-0.5-3.4-1.5-5-2.5c-0.9-0.5-1.7-1-2.5-1.4
		c-0.2-0.1-0.4-0.2-0.5-0.2c-0.1,0-0.3,0.1-0.6,0.3l-1.8,1.1c-0.4,0.2-0.8,0.5-1.2,0.7c-0.6,0.4-1.3,0.7-1.9,1.1
		c1.7,1.1,3.5,2.1,5.2,3.1l1.6,0.9c0.8,0.5,1.2,1.7,0.8,2.7c-0.3,0.7-0.9,1.2-1.6,1.4c0.1,0,0.2,0,0.2,0.1c1,0.4,1.6,1.5,1.4,2.6
		c-0.3,1.3-1.9,2.2-3.2,2.8c-0.3,0.2-0.6,0.3-0.8,0.4c-0.6,0.4-1.2,0.7-1.8,1c-0.6,0.4-1.3,0.7-2,1.1c1.6,1,3.2,1.9,4.8,2.8l0.9,0.5
		c0.8-0.4,1.6-0.9,2.3-1.3c1.7-1,3.5-2,5.3-2.9c0.2-0.1,0.5-0.2,0.7-0.2c0.3,0,0.6,0.1,0.9,0.3c0.5,0.3,0.9,0.7,1.1,1.2
		c0.3,0.8,0.2,1.6-0.4,2.2c-0.7,0.7-1.6,1.2-2.4,1.7c-0.2,0.1-0.5,0.3-0.7,0.4c-0.7,0.4-1.5,0.9-2.2,1.3c0.3,0.2,0.6,0.3,0.9,0.5
		c1.2,0.6,2.4,1.3,3.4,2.2c0.6,0.5,0.9,1.2,0.9,1.9c-0.1,0.8-0.6,1.4-1.3,1.8C67.6,62.9,67.3,63,67,63c-0.9,0-1.9-0.6-2.6-1
		c-0.2-0.1-0.3-0.2-0.4-0.2c-0.4-0.2-2-1.1-2.3-1.3c0,0.6,0,1.2,0,1.8c0,0.4,0,0.9,0,1.3c0,0.2,0,0.4,0,0.7c0,1.1,0.1,2.6-0.9,3.4
		c-0.4,0.4-0.9,0.6-1.5,0.6c-0.5,0-1-0.2-1.5-0.6c-1.1-1-1-2.4-0.9-3.6c0-0.3,0-0.6,0-0.9l0-3.1c0-0.1,0-0.4,0-0.6
		c0-0.4,0.1-1.5-0.1-1.7c-0.7-0.4-1.4-0.8-2.1-1.2c-1.1-0.7-2.3-1.4-3.5-2c0,1,0,1.9,0,2.9c0,0.5,0,1.1,0,1.6c0,0.3,0,0.6,0,1
		c0.1,1.4,0.2,2.9-0.9,3.9c-0.4,0.4-0.9,0.6-1.4,0.6c-0.4,0-0.8-0.1-1.1-0.4c-0.2-0.1-0.4-0.3-0.6-0.4c0.2,0.6,0.2,1.3-0.2,1.9
		c-0.4,0.6-1,0.9-1.7,1.1c-0.1,0-0.2,0-0.2,0c-0.6,0-1.3-0.4-1.8-0.7c-0.1-0.1-0.3-0.2-0.4-0.2c-0.6-0.3-1.2-0.6-1.7-1l-1.8-1
		c-0.7-0.4-1.4-0.8-2.1-1.2c-0.1,1.2,0,2.4,0,3.5c0,1,0,2,0,3c0,0.1,0.2,0.3,0.7,0.5c0.1,0.1,0.2,0.1,0.3,0.2
		c0.7,0.4,1.4,0.8,2.1,1.2c1.5,0.9,2.8,1.7,4.1,2.5c0.7,0.4,1,1.1,0.9,2c-0.1,0.8-0.5,1.5-1.3,1.9c-0.3,0.1-0.5,0.2-0.8,0.2
		c-1,0-2-0.6-2.8-1.1c-0.2-0.1-0.4-0.2-0.5-0.3c-0.4-0.2-0.8-0.4-1.1-0.7c-0.5-0.3-1-0.6-1.5-0.8c0,0.5,0,1.1,0,1.6
		c0,0.4,0,0.8,0,1.2c0,0.2,0,0.4,0,0.6c0,1,0.1,2.2-0.6,2.9c-0.4,0.3-0.8,0.6-1.4,0.7C35.2,81.4,35.1,81.5,34.9,81.5z M24.8,50.9
		c-0.1,0.1-0.3,0.2-0.4,0.2c-0.1,0.1-0.3,0.2-0.4,0.3c-0.6,0.3-0.6,0.3-0.6,0.9c0,1,0,2,0,3c0,0.4,0,0.8,0,1.2c0,1.4,0,2.7,0,4.1
		c0,0.2,0,0.5,0,0.7c0,0.5,0.1,1.1-0.1,1.6c0.3-0.3,0.8-0.6,1.1-0.8c0.1-0.1,0.2-0.1,0.3-0.2c0.9-0.6,1.8-1.1,2.8-1.7
		c1-0.6,2-1.2,3-1.8c0.1-0.1,0.3-0.2,0.6-0.3c1.3-0.6,1.5-0.9,1.5-1c0-0.5,0-1,0-1.5c-0.4,0.2-0.8,0.4-1.3,0.4
		c-0.3,0-0.5-0.1-0.8-0.2c-0.7-0.3-1.1-0.8-1.4-1.5c-0.2-0.6-0.1-1.3,0.3-1.7c0.6-0.7,1.3-1.1,2-1.6l0.1,0c0.1-0.1,0.3-0.1,0.4-0.2
		c0.3-0.2,0.8-0.4,0.8-0.6c0-1.1,0-2.2,0-3.3l0-0.5c-0.7,0.3-1.4,0.8-2,1.2c-0.4,0.3-0.9,0.5-1.3,0.8c-0.2,0.2-0.1,1.5-0.1,2.1
		c0,0.5,0,0.9,0,1.2c-0.2,1-1.1,1.9-2.2,1.9c-1.1,0-2.1-0.9-2.2-2C24.8,51.3,24.8,51.1,24.8,50.9z M37.4,55.7c0,0.5,0,0.9,0,1.4
		c0.1,0.2,1,0.7,1.4,0.8c0.2,0.1,0.3,0.2,0.4,0.2c0.8,0.5,1.7,1,2.5,1.5c0.4,0.3,0.9,0.5,1.4,0.8c1.2,0.7,2.4,1.4,3.5,2.2
		c0,0,0.1,0,0.1,0.1c-0.1-0.4-0.1-1,0-1.8c0-0.2,0-0.4,0-0.5l0-4.8c0-1.3,0-2.6,0-3.9l-1.3-0.7c0,0.1,0,0.2,0,0.3
		c0,0.9-0.5,1.5-1.3,2c-0.3,0.2-0.6,0.3-1,0.3c-0.3,0-0.6-0.1-0.9-0.2c-1.1-0.5-1.3-1.4-1.3-2c0-0.2,0-0.4,0-0.7
		c0-0.5,0.1-2.1-0.1-2.3c-0.5-0.3-1-0.6-1.5-0.9c-0.6-0.3-1.2-0.7-1.8-1c0,0.3,0,0.6,0,0.8l0,0.6c0,0.2,0,0.5,0,0.8
		c0,0.5-0.1,1.1,0,1.4c0.1,0.4,0.9,0.9,1.6,1.2c0.5,0.3,1,0.6,1.4,0.9c0.7,0.6,0.8,1.5,0.5,2.4c-0.3,0.8-1,1.3-1.9,1.3
		c0,0-0.1,0-0.1,0c-0.5,0-0.9-0.1-1.3-0.3L37.4,55.7z M11.3,42.3c0.5,0.1,1,0.5,1.5,0.7c0.2,0.1,0.3,0.2,0.4,0.3
		c1,0.5,1.9,1,2.8,1.6c0.9,0.5,1.9,1.1,2.8,1.6c0.1,0.1,0.3,0.2,0.5,0.3c0.4,0.3,1.2,0.8,1.5,0.8c0.2-0.1,0.5-0.2,0.7-0.3
		c0.2-0.1,0.5-0.2,0.7-0.4c-0.4-0.3-0.8-0.6-1.1-1.1c-0.4-0.8-0.4-1.6,0.1-2.3c0.4-0.6,1-0.9,1.7-0.9c0.1,0,0.2,0,0.3,0
		c0.8,0.1,1.4,0.5,2.1,0.8c0.1,0.1,0.3,0.2,0.4,0.3c0.2,0.2,0.7,0.5,1,0.5c0.4-0.2,0.8-0.5,1.3-0.7c0.7-0.4,1.4-0.8,2.1-1.2
		c-0.7-0.4-1.4-0.8-2.1-1.2c-0.4-0.2-0.9-0.5-1.3-0.7c-0.2,0-0.9,0.5-1.1,0.6c-0.2,0.1-0.3,0.2-0.4,0.3l-0.1,0.1
		C24.7,41.6,24,42,23.2,42c-0.1,0-0.3,0-0.4,0c-0.9-0.2-1.5-0.8-1.7-1.6c-0.2-0.8,0-1.6,0.7-2.2c0.2-0.2,0.4-0.3,0.6-0.5
		c-0.5-0.3-1.1-0.6-1.5-0.6c0,0-0.1,0-0.1,0c-0.2,0-0.6,0.3-0.9,0.5c-0.2,0.1-0.3,0.2-0.5,0.3l-1.6,0.9c-2,1.1-4.2,2.4-6.4,3.5
		C11.4,42.2,11.4,42.3,11.3,42.3z M48,47.1c0.1,0.1,0.3,0.1,0.4,0.2c0.3,0.2,0.5,0.2,0.6,0.2c0.1,0,0.3-0.1,0.5-0.2
		c0.7-0.4,1.5-0.8,2.2-1.2c0.4-0.2,0.8-0.5,1.2-0.7c1.1-0.6,2.2-1.2,3.3-1.8c0.2-0.1,0.3-0.2,0.5-0.3c0.6-0.3,1.2-0.8,1.9-0.9
		c-0.8-0.2-1.7-0.7-2.4-1.2c-0.3-0.2-0.5-0.3-0.8-0.5c-1-0.6-2.1-1.2-3.1-1.7l-0.2-0.1c-0.3-0.2-0.7-0.4-1-0.6
		c-0.7-0.4-1.4-0.9-2-1.1c-0.1,0-0.1,0-0.2,0c-0.4,0-1,0.3-1.4,0.6c0.3,0.2,0.6,0.5,0.9,0.8c0.5,0.7,0.6,1.5,0.3,2.2
		c-0.3,0.7-1,1.2-1.8,1.3c-0.1,0-0.2,0-0.3,0c-0.7,0-1.4-0.4-2-0.7l-0.2-0.1c-0.1,0-0.2-0.1-0.4-0.2c-0.2-0.2-0.9-0.5-1.1-0.6
		c-0.4,0.2-0.8,0.4-1.3,0.7c-0.7,0.4-1.5,0.7-2.1,1.2c0.7,0.4,1.4,0.8,2,1.2c0.5,0.3,0.9,0.5,1.4,0.8c0.3,0,1.3-0.6,1.8-0.9
		c0.5-0.3,0.9-0.6,1.2-0.7c0.2-0.1,0.4-0.1,0.6-0.1c1,0,2,0.7,2.2,1.8c0.2,1.2-0.5,2-1.3,2.6C47.7,46.9,47.8,47,48,47.1z M37.4,34.4
		c0,0.6,0,1.2,0,1.8c0,0.7,0,1.4,0,2.1c1.3-0.6,2.3-1.2,3-1.8c0.4-0.3,0.4-1.4,0.4-2.2c0-0.5,0-0.9,0-1.3c0.1-0.6,0.4-1.3,1.5-1.7
		c0.2-0.1,0.5-0.1,0.7-0.1c0.5,0,1,0.2,1.4,0.6c0.6,0.6,0.7,1.3,0.8,2l1.3-0.7c0-1.3,0-2.6,0.1-3.9c0-1.1,0-2.2,0.1-3.4
		c0-0.2,0-0.4,0-0.7c0-1.1,0-2.5,0.4-3.5c-0.4,0.6-1.2,1-1.8,1.3c-0.2,0.1-0.4,0.2-0.6,0.3c-0.8,0.5-1.7,1-2.5,1.5
		c-0.6,0.4-1.3,0.7-1.9,1.1c-0.9,0.5-1.9,1.1-2.8,1.6V29c0.2-0.1,0.4-0.2,0.6-0.3c0.2-0.1,0.5-0.1,0.7-0.1c0.5,0,1,0.2,1.5,0.7
		c0.4,0.4,0.9,1.1,0.8,2c-0.2,1.4-1.8,2.2-3,2.9C37.8,34.2,37.6,34.3,37.4,34.4z M27.1,31.1c1.1,0,2,0.8,2.1,1.9c0,0.3,0,0.7,0,1.2
		c0,0.7-0.1,2,0.3,2.2c0.4,0.2,0.9,0.5,1.3,0.8c0.6,0.4,1.2,0.7,1.8,1c0-0.6,0-1.1,0-1.7c0-0.7,0-1.5,0-2.2c0-0.1-0.1-0.2-0.7-0.4
		c-0.1-0.1-0.2-0.1-0.3-0.2c-0.7-0.4-1.3-0.8-1.9-1.4c-0.7-0.7-0.8-1.9-0.1-2.9c0.4-0.6,0.9-0.9,1.6-0.9c0.1,0,0.3,0,0.4,0.1
		c0.4,0.1,0.7,0.2,1.1,0.4c0-0.1,0-0.3,0-0.4c0-0.4,0-0.8,0-1.1c0-0.1-0.4-0.4-1.2-0.8c-0.2-0.1-0.4-0.2-0.5-0.2c-1-0.6-2-1.2-3-1.7
		l-0.6-0.4c-0.7-0.4-1.4-0.8-2.1-1.3c-0.1-0.1-0.3-0.2-0.5-0.3c-0.5-0.3-1.2-0.6-1.6-1.1c0,0.1,0.1,0.3,0.1,0.4
		c0.1,2.3,0.1,4.7,0.1,6.9l0,0.2c0,0.3,0,0.7,0,1.1c-0.1,0.8-0.1,1.7,0.1,2.3c0.1,0.3,0.7,0.8,1.4,1.1c0-0.5,0.1-1.1,0.4-1.5
		c0.4-0.6,1.1-1,1.8-1.1C27,31.1,27,31.1,27.1,31.1z"/>
	<path d="M43,46c-1.8-1-3.5-2.1-5.3-3.1c-0.6-0.4-0.6-0.9,0-1.2c1.6-0.9,3.2-2.1,4.9-2.7c1.4-0.5,2.8,1.4,4.3,1.5
		c0.3,0,0.5-0.2,0.6-0.4c0.1-0.2,0.1-0.4-0.1-0.6c-0.4-0.6-1.1-0.9-1.7-1.3c-0.5-0.4-0.5-0.8,0-1.1c0.8-0.6,1.9-1.3,2.9-1.6
		c1-0.4,2.2,0.6,3.1,1.1c2.5,1.4,4.9,2.8,7.4,4.1c0.2,0.1,0.4,0.1,0.6-0.1c0.4-0.3,0.4-0.9,0-1.2c-1.3-0.9-2.7-1.6-4-2.4
		c-1.4-0.8-2.9-1.5-4.2-2.4c-0.3-0.2-0.3-0.6,0-0.8c1.1-0.9,2.6-1.6,3.8-2.3c0.7-0.4,1.4-0.8,2-1.2c0.5-0.3,1.3-1,2-1
		c0.6,0,1.4,0.6,1.9,0.9c0.8,0.4,1.6,0.9,2.4,1.3c1.3,0.7,2.7,1.7,4.2,2.1c0.3,0.1,0.6,0,0.6-0.3c0.1-0.4,0.1-0.7-0.3-0.9
		c-1.1-0.6-2.1-1.3-3.1-1.9c-1-0.6-2.2-1.1-3-1.9c-0.4-0.4-0.3-0.8,0.1-1.1c1.8-1.1,3.7-2,5.4-3.3c0.2-0.2,0.3-0.4,0.2-0.6
		c-0.1-0.5-0.4-0.6-0.9-0.5c-2.3,0.8-4.4,2.4-6.5,3.6c-0.1-2.8,0-5.6-0.3-8.4c0-0.2-0.2-0.4-0.4-0.4c-0.5-0.1-0.8,0.1-0.9,0.5
		c-0.3,1.7-0.2,3.4-0.2,5.1c0,0.8,0,1.7,0,2.5c0,0.5,0.3,1.6-0.3,1.9c-2.5,1.4-4.9,2.8-7.4,4.2c-0.5,0.3-0.9,0.1-1-0.5
		c-0.6-3,0.4-6.3-0.2-9.4c-0.1-0.3-0.3-0.5-0.6-0.5c-0.5,0-0.6,0.1-0.7,0.5c-0.3,2-0.2,4.1-0.2,6.1c0,1.1,0,2.1-0.1,3.2
		c0,0.5,0.2,2-0.3,2.3c-1,0.6-2.1,1.3-3.2,1.8c-0.4,0.2-0.7,0-0.8-0.4c-0.2-0.7,0-1.5-0.2-2.3c-0.1-0.3-0.4-0.5-0.6-0.4
		c-0.3,0.1-0.6,0.2-0.6,0.6c-0.1,1.3-0.1,2.6-0.2,4c-1.8,1-3.5,2.2-5.4,3c-0.4,0.2-0.8,0-0.8-0.5c-0.1-1.1-0.1-2.2,0-3.3
		c0-1-0.1-2.1,0.1-3.1c1.1-0.6,2.2-1.2,3.2-2c0.2-0.1,0.3-0.4,0.3-0.6c0-0.4-0.6-0.8-1-0.6c-0.6,0.2-1.1,0.6-1.7,0.8
		c-0.4,0.2-0.8,0-0.8-0.5c-0.2-1.2-0.1-2.5-0.1-3.8c0-0.6,1.3-1.1,1.8-1.3c0.9-0.5,1.8-1,2.7-1.5c1.8-1,3.5-2.1,5.2-3.1
		c0.4-0.3,0.4-0.5,0.3-0.9c-0.3-1.1-3.5,1.1-4.1,1.4c-1.6,0.9-3.2,2-4.9,2.8c-1.3,0.6-0.9-3.4-0.9-4c0-1.8,0-3.5,0-5.3
		c0-0.7,1-1,1.5-1.2c0.7-0.4,1.4-0.8,2.2-1.3c1.4-0.8,2.8-1.7,4.2-2.5C44,9.7,44,9.5,44,9.2c-0.1-0.3-0.2-0.6-0.6-0.5
		c-1.3,0.2-2.7,1.3-3.9,2c-1.2,0.7-2.3,1.4-3.6,2c0-1.3-0.1-2.7-0.1-4c0-0.7,0.3-3.3-0.3-3.8c-0.5-0.4-1.1-0.1-1.2,0.5
		c-0.3,2.4,0,4.9-0.2,7.4c-1.3-0.7-2.6-1.5-3.8-2.2c-0.6-0.4-1.3-0.7-1.9-1.1c-0.4-0.2-1.3-0.9-1.8-0.8C26.3,8.8,26,9,26,9.3
		c-0.1,0.3,0.1,0.5,0.3,0.7c2.5,1.7,5.3,3.1,7.9,4.7c0,1.5,0,3.1,0,4.6c0,1.5,0.2,3.1-0.1,4.6c-0.1,0.4-0.4,0.6-0.8,0.4
		c-2.8-1.3-5.4-3.1-8.2-4.5c-0.4-0.2-0.7,0-0.8,0.3c-0.2,0.3-0.1,0.6,0.2,0.8c3.1,2.1,6.5,3.8,9.7,5.7c0.1,1.3,0.1,2.7-0.1,4
		c-0.1,0.5-0.4,0.7-0.8,0.5c-0.5-0.2-1.8-1.2-2.4-0.8c-0.4,0.3-0.4,0.8-0.1,1.1c0.6,0.5,1.2,0.9,1.9,1.2c0.4,0.3,1.4,0.5,1.4,1.1
		c0,1,0,2.1,0,3.1c0,0.9,0.2,2.1-0.1,3c-0.1,0.3-0.4,0.5-0.7,0.4c-1.6-0.6-3.3-1.7-4.7-2.7c-0.9-0.6-0.8-1.2-0.9-2.2
		c0-0.7,0.2-2.1-0.3-2.6c-0.1-0.1-0.3-0.2-0.4-0.2c-0.4,0-0.7,0.4-0.7,0.8c0,0.5,0,1.1-0.1,1.6c0,0.7-0.4,1-1.1,0.6
		c-0.9-0.5-2.4-1.1-3.1-1.9c-0.6-0.8-0.4-2.6-0.4-3.5c0-2.6,0.2-5.3-0.1-7.9c0-0.4-0.5-0.7-0.9-0.4c-0.3,0.2-0.5,0.4-0.5,0.8
		c0,2.9,0.3,6-0.1,8.9c-0.1,0.6-0.5,0.9-1.1,0.6c-2.5-1.2-4.8-2.8-7.3-4.1c-0.6-0.3-0.3-1.4-0.3-1.9c0-1,0-2,0-3c0-0.9,0-1.8,0-2.7
		c0-0.6,0.2-1.8-0.3-2.3c-0.2-0.2-0.5-0.3-0.8-0.2c-0.3,0.1-0.4,0.3-0.4,0.6c-0.1,1.3-0.1,2.7-0.1,4c0,1.3,0.1,2.8-0.1,4.2
		c-2.1-1.2-4.2-2.5-6.4-3.6c-0.3-0.2-0.7,0-0.9,0.3c-0.2,0.3-0.1,0.5,0.1,0.8c1.5,1.5,3.9,2.2,5.7,3.5c0.3,0.2,0.3,0.6,0,0.9
		c-1.2,1-2.7,1.6-4,2.4c-0.8,0.5-3.4,1.4-2.2,2.6c0.5,0.5,3.7-1.7,4.2-2c0.8-0.4,1.6-0.9,2.4-1.3c0.7-0.4,1.6-1.1,2.4-1
		c0.7,0.1,1.7,0.9,2.3,1.3c0.8,0.5,1.6,0.9,2.3,1.3c0.5,0.3,4,1.9,3,2.6c-1.2,1-2.8,1.6-4.2,2.4c-1.3,0.8-2.7,1.6-4,2.4
		c-0.2,0.1-0.3,0.3-0.3,0.6c0.1,0.5,0.3,0.9,0.9,0.7c1.8-0.8,3.5-1.9,5.3-2.9c0.8-0.5,1.7-0.9,2.5-1.4c0.7-0.4,1.8-1.3,2.6-0.9
		c1,0.4,2.1,0.9,3,1.6c0.5,0.4,0.5,0.8,0,1.1c-0.6,0.4-1.5,0.7-1.8,1.4c-0.1,0.2,0,0.5,0.1,0.7c0.2,0.2,0.4,0.3,0.7,0.2
		c0.7-0.3,1.4-0.6,2-1c0.4-0.2,1.3-1,1.8-0.8c1.1,0.6,2.2,1.3,3.3,1.9c0.5,0.3,2.8,1.2,2.1,2c-0.6,0.7-1.6,1.1-2.4,1.6
		c-1,0.6-2,1.1-2.9,1.7c-0.5,0.3-1.4-0.5-1.9-0.8c-0.6-0.4-1.3-0.7-2-1c-0.3-0.1-0.6,0-0.7,0.3c-0.5,0.8,1.2,1.5,1.7,1.9
		c1.5,1-2.3,2.5-3,2.8c-0.8,0.4-1.8-0.5-2.4-0.9c-0.8-0.5-1.7-1-2.5-1.4c-1.8-1-3.5-1.9-5.3-2.9c-0.3-0.2-0.5-0.1-0.8,0.1
		c-0.3,0.3-0.3,0.9,0.1,1.1c1.4,0.7,2.8,1.7,4.2,2.5c1.2,0.7,3,1.4,3.8,2.5c0.3,0.3,0.2,0.7-0.1,0.9c-1.1,0.8-2.5,1.5-3.8,2.2
		c-1.2,0.7-2.4,1.4-3.7,2c-0.7,0.3-1.4-0.4-1.9-0.7c-0.7-0.4-1.5-0.9-2.2-1.3c-1.4-0.8-2.7-1.5-4.1-2.2c-0.8-0.4-1.3,0.8-0.6,1.2
		c1.1,0.7,2.2,1.4,3.3,2c1,0.6,2.2,1.1,3.1,1.8c0.2,0.2,0.2,0.6,0,0.8c-1.2,0.9-2.7,1.6-4,2.3c-0.7,0.4-2.7,1.2-1.5,2.2
		c0.6,0.5,3-1.3,3.6-1.6c0.6-0.3,1.2-0.7,1.8-1c0.3-0.2,1.3-1,1.7-0.9c0.1,2.8-0.1,5.6,0.3,8.4c0,0.3,0.3,0.5,0.6,0.5
		c1.4-0.1,0.8-3.4,0.9-4.4c0-1.8,0-3.7,0-5.5c2.9-1.7,5.8-3.3,8.7-5c0,1.8,0.1,3.6,0.1,5.4c0,0.9,0,1.8,0,2.7c0,0.6-0.2,2.2,0.1,2.6
		c0.2,0.2,0.5,0.4,0.8,0.3c0.4-0.1,0.5-0.3,0.5-0.7c0-2.7,0-5.4,0-8.1c0-0.9-0.3-2.4,0.3-3.1c0.3-0.4,1-0.7,1.5-1
		c0.6-0.4,1.3-0.9,2-1.1c0.3-0.1,0.6,0.1,0.7,0.3c0.2,0.6,0.1,1.5,0.2,2.1c0.1,0.7,0.8,0.8,1.3,0.3c0.4-0.4,0.2-1.5,0.2-2
		c0-0.7,0-1.5,0-2.2c2.2-1.2,4.3-2.5,6.4-3.7c0,2.5,0,4.9,0,7.4c-0.6,0.4-3.8,1.8-3.6,2.7c0.1,0.3,0.3,0.4,0.5,0.6
		c0.5,0.3,2.5-1.1,3-1.4c0.2,1.5,0,3.3-0.1,4.9c0,0.5-1.8,1.3-2.2,1.5c-0.9,0.5-1.8,1.1-2.7,1.6c-0.9,0.5-1.8,1.1-2.7,1.6
		c-0.5,0.3-2.3,1-2.3,1.7c0,0.6,0.5,0.9,1,0.7c2.8-1.2,5.2-3.2,8-4.4c0.4-0.2,0.7,0,0.9,0.4c0.4,1.3,0.2,3,0.2,4.3
		c0,1.6,0,3.2,0,4.8c-2.6,1.6-5.3,3.1-7.9,4.6C26,74.8,26,75,26,75.3c0,0.1,0,0.2,0.1,0.3c0.1,0.2,0.2,0.3,0.5,0.3
		c1.3-0.1,2.6-1.2,3.7-1.8c1.3-0.7,2.5-1.5,3.8-2.2c0.1,1.4,0.1,2.8,0.1,4.3c0,0.9-0.3,3.3,0.6,3.7c0.3,0.2,0.9-0.1,0.9-0.5
		c0.2-2.5-0.1-5,0.3-7.5c1.2,0.7,2.3,1.3,3.5,2c0.6,0.3,1.2,0.7,1.8,1c0.5,0.3,1.5,1,2.2,1c0.3,0,0.5-0.2,0.6-0.5
		c0.1-0.3,0-0.5-0.2-0.7c-1.4-0.9-2.9-1.8-4.4-2.6c-0.7-0.4-1.4-0.8-2.1-1.2c-0.4-0.3-1.5-0.6-1.5-1.2c0-2.9-0.3-6,0.1-8.9
		c0.1-0.4,0.4-0.6,0.7-0.4c1.4,0.5,2.7,1.5,4,2.2c1.4,0.8,2.8,1.6,4.3,2.3c0.3,0.1,0.6,0,0.8-0.2c0.2-0.2,0.2-0.5,0-0.7
		c-0.4-0.5-1.2-0.9-1.7-1.2c-0.8-0.5-1.6-1-2.4-1.4c-1.6-1-3.2-1.9-4.9-2.8c-0.8-0.5-0.8-1.2-0.8-2c0-1.2,0-2.4,0.1-3.6
		c0.8,0.5,1.8,1.4,2.8,1.4c0.3,0,0.5-0.1,0.6-0.4c0.1-0.3,0.1-0.5-0.1-0.7c-0.7-0.6-1.5-1-2.3-1.5c-1-0.6-1.1-0.6-1.1-1.9
		c0-2-0.1-4.1,0-6.1c1.2,0.6,2.4,1.4,3.6,2.1c0.6,0.3,2.8,1.2,2.8,1.9c0,1.1-0.2,2.6,0.1,3.7c0.1,0.6,0.7,0.7,1.1,0.3
		c0.5-0.5,0.2-1.8,0.3-2.5c0.1-0.4,0.4-0.5,0.7-0.4c0.6,0.2,1.3,0.7,1.9,1c0.5,0.3,1.2,0.6,1.7,1c0,2,0,4,0,6c0,1,0,2,0,3
		c0,0.6-0.3,2.5,0.3,2.8c0.2,0.1,0.4,0.4,0.7,0.3c0.3-0.1,0.6-0.5,0.6-0.8c0-3.4-0.1-6.8,0.1-10.2c2.8,1.5,5.5,3.2,8.3,4.8
		c0.6,0.3,0.3,1.4,0.3,1.9c0,1,0,2,0,3c0,0.9,0,1.8,0,2.7c0,0.6-0.2,1.8,0.3,2.3c0.3,0.3,0.6,0.3,0.9,0c0.4-0.4,0.3-1.3,0.3-1.8
		c0-0.8,0-1.7,0-2.5c0-1.4,0-2.9,0.1-4.3c1.2,0.6,2.3,1.3,3.4,2c0.6,0.4,2.8,2,3.5,1.6c0.5-0.2,0.6-0.8,0.2-1.2
		C65.8,58.9,63.8,58,62,57c-0.4-0.3-0.5-0.7-0.1-1c0.8-0.8,2.1-1.4,3.1-1.9c1.1-0.6,2.2-1.2,3.2-2c0.4-0.3,0.1-0.7-0.2-1
		c-0.1-0.1-0.3-0.2-0.5-0.1c-2.7,1.5-5.5,3-8.2,4.6c-1.3-0.8-2.7-1.5-4-2.3c-1.2-0.7-2.9-1.4-3.8-2.4c-0.3-0.3-0.2-0.7,0.1-1
		c2.5-1.7,5.7-2.8,8-4.8c0.2-0.2,0.2-0.4,0.1-0.7c-0.1-0.1-0.2-0.2-0.3-0.3c-0.1-0.1-0.3-0.1-0.4-0.1c-2.4,1.3-4.8,2.6-7.1,3.9
		c-0.8,0.5-2.2,1.7-3.2,1.4c-0.6-0.2-1.2-0.6-1.8-0.9c-0.5-0.3-1.1-0.5-1.5-0.9c-0.2-0.2-0.2-0.5,0-0.7c0.5-0.5,1.3-0.8,1.8-1.3
		c0.2-0.2,0.2-0.6,0.1-0.8c-0.2-0.3-0.5-0.4-0.8-0.3C45.3,44.4,44.1,45.4,43,46C42.5,45.7,43.5,45.7,43,46z"/>
	<path fill="#FFFFFF" d="M43,46c1.1-0.6,2.3-1.5,3.5-1.9c0.3-0.1,0.6,0,0.8,0.3c0.2,0.3,0.1,0.6-0.1,0.8c-0.5,0.5-1.3,0.7-1.8,1.3
		c-0.2,0.2-0.2,0.5,0,0.7c0.7,0.7,2.3,1.5,3.2,1.8c1.1,0.4,2.4-0.8,3.3-1.3c2.4-1.3,4.7-2.7,7.1-3.9c0.2-0.1,0.3-0.1,0.4,0.1
		c0.1,0.1,0.2,0.2,0.3,0.3c0.1,0.2,0.1,0.5-0.1,0.7c-2.3,2-5.4,3.1-8,4.8c-0.4,0.2-0.4,0.7-0.1,1c1,1.1,2.6,1.7,3.8,2.4
		c1.3,0.8,2.7,1.6,4,2.3c2.7-1.5,5.4-3.1,8.2-4.6c0.2-0.1,0.3-0.1,0.5,0.1c0.3,0.3,0.5,0.7,0.2,1c-0.9,0.8-2.1,1.4-3.2,2
		c-1,0.6-2.3,1.1-3.1,1.9c-0.3,0.4-0.3,0.8,0.1,1c1.7,1,3.8,1.9,5.3,3.2c0.4,0.4,0.4,0.9-0.2,1.2c-0.8,0.4-2.9-1.3-3.5-1.6
		c-1.1-0.7-2.3-1.3-3.4-2c-0.1,1.4,0,2.9-0.1,4.3c0,0.8,0,1.5,0,2.3c0,0.5,0.1,1.6-0.3,2c-0.3,0.3-0.6,0.3-0.9,0
		c-0.5-0.5-0.3-1.4-0.3-2.1c0-1,0-2,0-3c0-0.9,0-1.8,0-2.7c0-0.5,0.2-1.8-0.3-2.2c-2.8-1.6-5.5-3.2-8.3-4.8
		c-0.2,3.4-0.1,6.8-0.1,10.2c0,0.3-0.3,0.7-0.6,0.8c-0.3,0.1-0.5-0.1-0.7-0.3c-0.5-0.3-0.3-2.2-0.3-2.8c0-1,0-2,0-3c0-2,0-4,0-6
		c-0.4-0.4-1.2-0.7-1.7-1c-0.6-0.3-1.2-0.8-1.9-1c-0.3-0.1-0.7,0-0.7,0.4c-0.2,0.7,0.2,2-0.3,2.5c-0.4,0.4-1,0.2-1.1-0.3
		c-0.3-1.1-0.1-2.5-0.1-3.7c0-0.8-2.2-1.6-2.8-1.9c-1.2-0.7-2.4-1.4-3.6-2.1c-0.1,2,0,4.1,0,6.1c0,1.2,0,1.3,1.1,1.9
		c0.8,0.5,1.6,0.9,2.3,1.5c0.2,0.2,0.3,0.4,0.1,0.7c-0.1,0.3-0.3,0.4-0.6,0.4c-1,0-2-0.9-2.8-1.4c-0.1,1.2-0.1,2.4-0.1,3.6
		c0,0.8,0.1,1.6,0.8,2c1.6,0.9,3.3,1.9,4.9,2.8c0.7,0.4,1.5,0.9,2.2,1.3c0.6,0.4,1.5,0.7,1.9,1.3c0.2,0.2,0.2,0.5,0,0.7
		c-0.2,0.2-0.5,0.3-0.8,0.2c-1.5-0.7-2.9-1.5-4.3-2.3c-1.3-0.7-2.6-1.7-4-2.2c-0.4-0.1-0.7,0.1-0.7,0.4c-0.4,2.9-0.1,6-0.1,8.9
		c0,0.8,2.9,2,3.6,2.4c1.5,0.9,2.9,1.7,4.4,2.6c0.3,0.2,0.3,0.4,0.2,0.7c-0.1,0.3-0.3,0.5-0.6,0.5c-0.6,0-1.5-0.6-2-0.9
		c-0.7-0.4-1.3-0.7-2-1.1c-1.2-0.7-2.3-1.4-3.5-2c-0.4,2.4-0.1,5-0.3,7.5c0,0.4-0.6,0.7-0.9,0.5c-0.9-0.4-0.5-2.9-0.6-3.7
		c0-1.4,0-2.8-0.1-4.3c-1.3,0.7-2.5,1.5-3.8,2.2c-1.1,0.6-2.4,1.7-3.7,1.8c-0.2,0-0.4-0.1-0.5-0.3c0-0.1-0.1-0.2-0.1-0.3
		c0-0.3,0-0.5,0.3-0.6c2.6-1.6,5.3-3.1,7.9-4.6c0-1.6,0-3.2,0-4.8c0-1.3,0.3-3.1-0.2-4.3c-0.1-0.4-0.5-0.6-0.9-0.4
		c-2.8,1.3-5.2,3.2-8,4.4c-0.5,0.2-1-0.1-1-0.7c0-0.7,1.8-1.4,2.3-1.7c0.9-0.5,1.8-1.1,2.7-1.6c0.9-0.5,1.8-1.1,2.7-1.6
		c0.4-0.2,2.2-1,2.2-1.5c0-1.6,0.3-3.4,0.1-4.9c-0.5,0.3-2.5,1.7-3,1.4c-0.2-0.1-0.5-0.3-0.5-0.6c-0.2-0.9,2.9-2.3,3.6-2.7
		c0-2.5,0-4.9,0-7.4c-2.1,1.2-4.2,2.5-6.4,3.7c0,0.7,0,1.5,0,2.2c0,0.5,0.2,1.6-0.2,2c-0.4,0.5-1.2,0.4-1.3-0.3
		c-0.1-0.7,0.1-1.5-0.2-2.1c-0.1-0.3-0.4-0.4-0.7-0.3c-0.6,0.2-1.2,0.7-1.8,1c-0.5,0.3-1.3,0.6-1.6,1c-0.6,0.7-0.3,2.3-0.3,3.2
		c-0.1,2.7,0,5.4,0,8.1c0,0.4-0.1,0.6-0.5,0.7c-0.2,0.1-0.6,0-0.8-0.3c-0.3-0.4-0.1-1.9-0.1-2.4c0-1,0-2,0-2.9
		c0-1.8-0.1-3.6-0.1-5.4c-2.9,1.7-5.8,3.4-8.7,5c0,1.8,0,3.7,0,5.5c0,0.9,0,1.8,0,2.6c0,0.7,0.1,1.6-0.8,1.7c-0.3,0-0.6-0.2-0.6-0.5
		c-0.4-2.7-0.1-5.6-0.3-8.4c-0.4-0.1-1.2,0.6-1.5,0.8c-0.7,0.4-1.3,0.7-2,1.1c-0.5,0.3-3,2.1-3.6,1.6c-1.1-1,0.8-1.8,1.5-2.2
		c1.3-0.8,2.9-1.4,4-2.3c0.3-0.2,0.3-0.6,0-0.8c-0.8-0.8-2.1-1.3-3.1-1.8c-1.1-0.7-2.2-1.3-3.3-2c-0.7-0.5-0.1-1.6,0.6-1.2
		c1.4,0.7,2.8,1.5,4.1,2.2c0.7,0.4,1.3,0.8,2,1.2c0.6,0.3,1.4,1.1,2.1,0.8c1.3-0.6,2.5-1.3,3.7-2c1.2-0.7,2.6-1.3,3.8-2.2
		c0.3-0.2,0.4-0.6,0.1-0.9c-0.9-1.1-2.6-1.8-3.8-2.5c-1.4-0.8-2.8-1.8-4.2-2.5c-0.4-0.2-0.4-0.8-0.1-1.1c0.2-0.2,0.5-0.3,0.8-0.1
		c1.8,1,3.5,1.9,5.3,2.9c0.8,0.4,1.6,0.9,2.3,1.3c0.7,0.4,1.8,1.3,2.6,1c0.7-0.3,4.5-1.8,3-2.8c-0.5-0.3-2.2-1.1-1.7-1.9
		c0.2-0.3,0.4-0.4,0.7-0.3c0.7,0.2,1.3,0.6,2,1c0.4,0.2,1.4,1.1,1.9,0.8c1-0.6,1.9-1.1,2.9-1.7c0.8-0.4,1.8-0.9,2.4-1.6
		c0.7-0.8-1.6-1.7-2.1-2c-1.1-0.6-2.2-1.3-3.3-1.9c-0.4-0.3-1.4,0.6-1.8,0.8c-0.7,0.4-1.3,0.7-2,1c-0.3,0.1-0.5,0-0.7-0.2
		c-0.2-0.2-0.3-0.4-0.1-0.7c0.3-0.7,1.2-1,1.8-1.4c0.5-0.3,0.5-0.7,0-1.1c-0.9-0.7-2-1.2-3-1.6c-0.9-0.4-1.9,0.5-2.6,0.9
		c-0.8,0.5-1.6,0.9-2.5,1.4c-1.7,1-3.5,2-5.3,2.9c-0.5,0.2-0.8-0.2-0.9-0.7c-0.1-0.2,0-0.4,0.3-0.6c1.3-0.8,2.7-1.6,4-2.4
		c1.4-0.8,2.9-1.5,4.2-2.4c1-0.8-2.6-2.4-3-2.6c-0.8-0.4-1.6-0.9-2.3-1.3c-0.7-0.4-1.5-1.2-2.3-1.3c-0.7-0.1-1.7,0.6-2.4,1
		c-0.8,0.4-1.6,0.9-2.4,1.3c-0.6,0.3-3.7,2.5-4.2,2c-1.2-1.2,1.5-2.2,2.2-2.6c1.3-0.8,2.9-1.4,4-2.4c0.3-0.3,0.3-0.6,0-0.9
		c-1.8-1.2-4.1-1.9-5.7-3.5c-0.3-0.3-0.3-0.5-0.1-0.8C2.6,23.2,3,23,3.3,23.2c2.2,1.1,4.3,2.4,6.4,3.6c0.2-1.3,0.1-2.8,0.1-4.2
		c0-1.3,0.1-2.7,0.1-4c0-0.3,0.1-0.5,0.4-0.6c0.3-0.1,0.5,0,0.8,0.2c0.5,0.5,0.3,1.4,0.3,2c0,1,0,2,0,3c0,0.9,0,1.8,0,2.7
		c0,0.5-0.2,1.8,0.3,2.2c2.4,1.4,4.8,2.9,7.3,4.1c0.6,0.3,1,0.1,1.1-0.6c0.4-2.9,0.1-6,0.1-8.9c0-0.4,0.2-0.6,0.5-0.8
		c0.4-0.2,0.9,0,0.9,0.4c0.3,2.6,0.1,5.3,0.1,7.9c0,0.9-0.2,2.6,0.3,3.4c0.6,0.9,2.3,1.5,3.2,2c0.6,0.4,1.1,0.1,1.1-0.6
		c0-0.5,0-1.1,0.1-1.6c0-0.4,0.3-0.7,0.7-0.8c0.2,0,0.3,0,0.4,0.2c0.5,0.5,0.3,1.9,0.3,2.6c0,1,0,1.6,0.9,2.2
		c1.4,0.9,3.2,2.1,4.7,2.7c0.3,0.1,0.6,0,0.7-0.4c0.3-0.9,0.1-2.1,0.1-3c0-1,0-2.1,0-3.1c0-0.6-0.9-0.9-1.4-1.1
		c-0.6-0.4-1.3-0.7-1.9-1.2c-0.4-0.3-0.3-0.8,0.1-1.1c0.6-0.4,1.8,0.6,2.4,0.8c0.4,0.2,0.8,0,0.8-0.5c0.1-1.3,0.2-2.7,0.1-4
		c-3.2-1.9-6.6-3.7-9.7-5.7c-0.3-0.2-0.4-0.5-0.2-0.8c0.2-0.3,0.5-0.5,0.8-0.3c2.8,1.4,5.4,3.3,8.2,4.5c0.4,0.2,0.7,0,0.8-0.4
		c0.3-1.4,0.1-3.1,0.1-4.6c0-1.5,0-3.1,0-4.6c-2.6-1.6-5.3-3-7.9-4.7c-0.2-0.2-0.4-0.4-0.3-0.7C26,9,26.3,8.8,26.5,8.7
		c0.4-0.1,1.3,0.5,1.6,0.7c0.7,0.4,1.4,0.8,2.1,1.2c1.3,0.7,2.6,1.5,3.8,2.2c0.2-2.4-0.2-4.9,0.2-7.4c0.1-0.6,0.7-0.9,1.2-0.5
		c0.7,0.5,0.3,3.1,0.3,3.8c0,1.3,0.1,2.7,0.1,4c1.2-0.6,2.4-1.4,3.6-2c1.2-0.7,2.5-1.7,3.9-2c0.4-0.1,0.5,0.2,0.6,0.5
		c0.1,0.3,0,0.5-0.2,0.7c-1.4,0.9-2.8,1.7-4.2,2.5c-0.7,0.4-1.4,0.8-2.2,1.3c-0.5,0.3-1.5,0.6-1.5,1.2c0,1.8,0,3.5,0,5.3
		c0,0.6-0.4,4.6,0.9,4c1.7-0.8,3.3-1.9,4.9-2.8c0.5-0.3,3.7-2.5,4.1-1.4c0.1,0.3,0.1,0.6-0.3,0.9c-1.7,1-3.5,2.1-5.2,3.1
		c-0.9,0.5-1.8,1-2.7,1.5c-0.5,0.3-1.8,0.7-1.8,1.3c0,1.2-0.1,2.5,0.1,3.8c0.1,0.5,0.4,0.6,0.8,0.5c0.6-0.2,1.1-0.6,1.7-0.8
		c0.4-0.1,1,0.2,1,0.6c0,0.2-0.1,0.4-0.3,0.6c-1,0.8-2.2,1.4-3.2,2c-0.1,1,0,2.1-0.1,3.1c0,1.1-0.1,2.2,0,3.3
		c0.1,0.5,0.4,0.6,0.8,0.5c1.9-0.8,3.6-2,5.4-3c0.1-1.3,0.1-2.6,0.2-4c0-0.4,0.3-0.5,0.6-0.6c0.3-0.1,0.6,0.1,0.6,0.4
		c0.2,0.7,0,1.5,0.2,2.3c0.1,0.4,0.4,0.5,0.8,0.4c1.1-0.4,2.1-1.2,3.2-1.8c0.5-0.3,0.3-1.8,0.3-2.3c0-1.1,0-2.1,0.1-3.2
		c0-2,0-4.1,0.2-6.1c0.1-0.4,0.2-0.5,0.7-0.5c0.3,0,0.5,0.2,0.6,0.5c0.6,3-0.4,6.3,0.2,9.4c0.1,0.6,0.5,0.8,1,0.5
		c2.5-1.3,4.9-2.8,7.4-4.2c0.5-0.3,0.3-1.4,0.3-1.9c0-0.8,0-1.7,0-2.5c0-1.7-0.1-3.4,0.2-5.1c0.1-0.5,0.4-0.6,0.9-0.5
		c0.2,0.1,0.4,0.2,0.4,0.4c0.3,2.8,0.2,5.6,0.3,8.4c2.1-1.1,4.2-2.8,6.5-3.6c0.5-0.2,0.8,0,0.9,0.5c0.1,0.2,0,0.5-0.2,0.6
		c-1.7,1.2-3.6,2.1-5.4,3.3c-0.4,0.3-0.5,0.7-0.1,1.1c0.8,0.8,2,1.3,3,1.9c1,0.6,2.1,1.3,3.1,1.9c0.4,0.2,0.4,0.5,0.3,0.9
		c-0.1,0.3-0.3,0.4-0.6,0.3c-1.5-0.5-2.8-1.4-4.2-2.1c-0.7-0.4-1.5-0.8-2.2-1.2c-0.6-0.3-1.4-1-2.1-1c-0.6,0-1.3,0.6-1.8,0.9
		c-0.7,0.4-1.5,0.9-2.2,1.3c-1.2,0.7-2.8,1.4-3.8,2.3c-0.3,0.2-0.3,0.6,0,0.8c1.2,1,2.8,1.6,4.2,2.4c1.3,0.8,2.7,1.5,4,2.4
		c0.4,0.3,0.4,0.9,0,1.2c-0.2,0.1-0.4,0.2-0.6,0.1c-2.5-1.3-4.9-2.7-7.4-4.1c-0.8-0.4-2-1.5-3-1.2c-1,0.3-2.1,1.1-3,1.7
		c-0.5,0.4-0.5,0.8,0,1.1c0.6,0.4,1.3,0.7,1.7,1.3c0.1,0.2,0.2,0.4,0.1,0.6c-0.1,0.2-0.3,0.4-0.6,0.4c-1.5-0.1-2.8-2-4.3-1.5
		c-0.8,0.3-1.7,0.9-2.4,1.4c-0.8,0.5-1.6,0.9-2.4,1.4c-0.6,0.3-0.6,0.8,0,1.2C39.4,43.9,41.2,44.9,43,46C43.5,45.7,42.5,45.7,43,46z
		"/>
</g>
<g>
	<g>
		<path fill="#7ABEE5" d="M109.8,68.3c0-1.5-0.9-2.1-3-2.1h-4.5c-3.7,0-4.6,0.5-4.6,3.7v2.6c0,2.9,1.3,3.5,4.6,3.5h3.3
			c3.1,0,4.4-0.3,4.4-2.6v-0.2h5.8c0,0.5,0.1,0.9,0.1,1.4c0,2.3-0.5,3.8-1.9,4.8c-1.4,1-3.6,1.3-6.9,1.3h-6.3c-2.9,0-5-0.1-6.6-1.4
			c-1.6-1.2-2.1-2.9-2.1-5.4v-5.1c0-5.6,2.4-7.2,8.8-7.2h6.3c3.2,0,5.4,0.2,6.8,1.2c1.2,0.9,1.7,2.5,1.7,4.7c0,0.3,0,0.7,0,1h-5.7
			V68.3z"/>
		<path fill="#7ABEE5" d="M144,79.3c-1.5-1.1-2-2.8-2-5.5v-5.1c0-2.9,0.5-4.7,2-5.9c1.5-1.1,3.8-1.3,7.2-1.3h6.7
			c3.4,0,5.7,0.2,7.2,1.3c1.4,1.1,2,2.9,2,5.6v5.2c0,2.8-0.6,4.5-2,5.6c-1.5,1.1-3.9,1.3-7.2,1.3h-6.6
			C147.9,80.6,145.6,80.5,144,79.3z M156.4,76c3.6,0,5-0.5,5-3.6v-2.6c0-3-1.4-3.6-5-3.6h-3.6c-3.7,0-5,0.5-5,3.7v2.6
			c0,2.9,1.4,3.5,5,3.5H156.4z"/>
		<path fill="#7ABEE5" d="M195.6,79.3c-1.5-1.1-2-2.8-2-5.5v-5.1c0-2.9,0.5-4.7,2-5.9c1.5-1.1,3.8-1.3,7.2-1.3h6.7
			c3.4,0,5.7,0.2,7.2,1.3c1.4,1.1,2,2.9,2,5.6v5.2c0,2.8-0.6,4.5-2,5.6c-1.5,1.1-3.9,1.3-7.2,1.3h-6.6
			C199.5,80.6,197.2,80.5,195.6,79.3z M208,76c3.6,0,5-0.5,5-3.6v-2.6c0-3-1.4-3.6-5-3.6h-3.6c-3.7,0-5,0.5-5,3.7v2.6
			c0,2.9,1.4,3.5,5,3.5H208z"/>
		<path fill="#7ABEE5" d="M264.1,75.9v4.5h-18V61.8h5.7v14.1H264.1z"/>
		<path fill="#7ABEE5" d="M290,80.4V61.8h5.7v18.6H290z"/>
		<path fill="#7ABEE5" d="M340.1,80.4l-11.1-13.5v13.5h-5.7V61.8h8.4l11.1,13.6V61.8h5.6v18.6H340.1z"/>
		<path fill="#7ABEE5" d="M393.1,68.5c0-2-1.3-2.2-4.3-2.2h-3.3c-3.7,0-4.5,0.5-4.5,3.7v2.6c0,2.9,1.3,3.5,4.6,3.5h3.3
			c3,0,4.3-0.4,4.3-2c0-0.2,0-0.4-0.1-0.6h-6.7v-3.8H399v6.1c0,3.8-2.8,4.8-8.7,4.8H384c-2.9,0-5-0.1-6.6-1.4
			c-1.6-1.2-2.1-2.9-2.1-5.4v-5.1c0-5.6,2.4-7.2,8.8-7.2h6.3c3.2,0,5.5,0.2,6.8,1.2c1.2,0.9,1.7,2.5,1.7,4.7c0,0.3,0,0.7,0,1
			L393.1,68.5L393.1,68.5z"/>
	</g>
</g>
</svg>
